<svg xmlns="http://www.w3.org/2000/svg" version="1.1" xmlns:xlink="http://www.w3.org/1999/xlink" viewBox="0 0 200 200"><rect width="200" height="200" fill="url('#gradient')"></rect><defs><linearGradient id="gradient" gradientTransform="rotate(45 0.5 0.5)"><stop offset="0%" stop-color="#f2ff00"></stop><stop offset="100%" stop-color="#d9e241"></stop></linearGradient></defs><g><g fill="#ffffff" transform="matrix(9.097827136648961,0,0,9.097827136648961,-1.76071853222102,169.18651459116916)" stroke="#0e5278" stroke-width="0"><path d="M12.95-14.22L12.95 0L9.54 0L4.50-8.85L4.50 0L1.07 0L1.07-14.22L4.50-14.22L9.53-5.37L9.53-14.22L12.95-14.22ZM18.99 0L15.69 0L15.69-8.28L14.16-8.28L14.16-10.57L15.69-10.57L15.69-11.41Q15.69-13.21 16.76-14.21Q17.82-15.21 19.75-15.21L19.75-15.21Q20.45-15.21 21.29-15L21.29-15L21.30-12.58Q21.00-12.67 20.49-12.67L20.49-12.67Q18.99-12.67 18.99-11.38L18.99-11.38L18.99-10.57L21.05-10.57L21.05-8.28L18.99-8.28L18.99 0Z"></path></g></g></svg>